<?xml version="1.0" standalone="no"?>
<!DOCTYPE svg PUBLIC "-//W3C//DTD SVG 20010904//EN"
 "http://www.w3.org/TR/2001/REC-SVG-20010904/DTD/svg10.dtd">
<svg version="1.0" xmlns="http://www.w3.org/2000/svg"
 width="244.000000pt" height="97.000000pt" viewBox="0 0 244.000000 97.000000"
 preserveAspectRatio="xMidYMid meet">

<g transform="translate(0.000000,97.000000) scale(0.100000,-0.100000)"
fill="#000000" stroke="none">
<path d="M259 902 c-94 -49 -127 -119 -128 -274 l-1 -68 -30 0 c-34 0 -36 -4
-43 -72 l-5 -48 39 0 39 0 0 -160 0 -160 65 0 65 0 0 63 c0 34 3 106 7 160 l6
97 89 0 88 0 0 60 0 60 -96 0 -97 0 7 87 c9 102 16 120 61 139 28 11 41 11 90
-1 32 -9 62 -18 66 -21 5 -3 9 31 9 74 0 93 2 92 -105 92 -60 0 -82 -5 -126
-28z"/>
<path d="M2239 831 c-20 -16 -21 -23 -13 -51 12 -44 35 -58 67 -41 14 7 30 24
36 38 9 20 7 27 -14 48 -29 30 -45 31 -76 6z m46 -81 c-3 -5 -10 -10 -16 -10
-5 0 -9 5 -9 10 0 6 7 10 16 10 8 0 12 -4 9 -10z"/>
<path d="M790 671 c-133 -44 -209 -142 -210 -271 -1 -231 255 -371 435 -238
80 60 120 143 120 248 0 57 -6 85 -22 116 -24 45 -85 104 -135 130 -36 19
-149 28 -188 15z m148 -140 c41 -29 67 -97 59 -156 -14 -97 -57 -139 -140
-137 -87 2 -128 49 -135 158 -5 75 13 116 66 144 46 25 108 22 150 -9z"/>
<path d="M1415 656 c-105 -49 -152 -116 -162 -234 -15 -181 96 -307 272 -307
113 0 192 51 247 160 40 77 43 178 8 249 -63 131 -235 193 -365 132z m171
-112 c61 -29 91 -103 75 -187 -22 -119 -154 -163 -234 -79 -20 20 -31 47 -39
92 -10 59 -9 67 12 108 39 72 115 100 186 66z"/>
<path d="M2019 661 c-43 -24 -87 -73 -95 -107 -10 -40 2 -114 23 -143 14 -19
49 -36 124 -63 110 -39 135 -58 118 -90 -24 -44 -112 -45 -181 -1 -21 12 -42
23 -46 23 -15 0 -65 -78 -59 -93 2 -7 29 -26 58 -42 49 -27 62 -30 149 -30 82
0 100 3 132 23 101 63 125 191 47 256 -17 14 -69 38 -116 53 -81 25 -123 50
-123 73 0 6 9 19 20 30 26 26 74 26 138 -1 l50 -21 35 38 c19 22 33 42 31 46
-3 4 -26 20 -51 35 -39 23 -61 28 -132 30 -71 3 -92 0 -122 -16z"/>
</g>
</svg>
